<?xml version="1.0" encoding="utf-8"?>
<!-- Generator: Adobe Illustrator 15.1.0, SVG Export Plug-In . SVG Version: 6.00 Build 0)  -->
<!DOCTYPE svg PUBLIC "-//W3C//DTD SVG 1.1//EN" "http://www.w3.org/Graphics/SVG/1.1/DTD/svg11.dtd">
<svg version="1.1" id="Layer_1" xmlns="http://www.w3.org/2000/svg" xmlns:xlink="http://www.w3.org/1999/xlink" x="0px" y="0px"
	 width="16px" height="16px" viewBox="0 0 16 16" enable-background="new 0 0 16 16" xml:space="preserve">
<g id="Call_3_x2C__Phone_3">
	<path d="M5.5,0H2.999c-0.276,0-0.613,0.193-0.74,0.439C1.138,2.598,0.5,5.447,0.5,8c0,2.552,0.638,5.402,1.76,7.561
		C2.387,15.807,2.724,16,3,16h2.5c0.553,0,1-0.447,1-1v-2c0-0.553-0.447-1-1-1h-1c-0.552,0-1-0.448-1-1V5c0-0.552,0.447-1,1-1h1
		c0.552,0,1-0.448,1-1V1C6.5,0.448,6.053,0,5.5,0z"/>
	<path d="M10.172,5.029c-0.206-0.185-0.55-0.15-0.745,0.045L8.674,5.826C8.479,6.021,8.531,6.268,8.746,6.44
		C9.203,6.806,9.5,7.369,9.5,8S9.203,9.193,8.746,9.561c-0.215,0.172-0.268,0.418-0.072,0.613l0.753,0.752
		c0.195,0.195,0.54,0.229,0.745,0.045C10.988,10.241,11.5,9.18,11.5,8C11.5,6.82,10.988,5.759,10.172,5.029z"/>
	<path d="M14.63,4.38c-0.414-0.819-0.963-1.56-1.625-2.181c-0.2-0.188-0.534-0.171-0.729,0.024l-0.713,0.713
		c-0.194,0.195-0.176,0.489,0.026,0.678C12.761,4.704,13.5,6.27,13.5,8c0,1.73-0.739,3.296-1.911,4.386
		c-0.202,0.188-0.221,0.482-0.026,0.679l0.713,0.713c0.195,0.195,0.529,0.212,0.73,0.022c0.775-0.728,1.401-1.616,1.833-2.61
		C15.26,10.21,15.5,9.13,15.5,8C15.5,6.7,15.189,5.46,14.63,4.38z"/>
</g>
</svg>
