<?xml version="1.0" encoding="utf-8"?>
<!-- Generator: Adobe Illustrator 15.1.0, SVG Export Plug-In . SVG Version: 6.00 Build 0)  -->
<!DOCTYPE svg PUBLIC "-//W3C//DTD SVG 1.1//EN" "http://www.w3.org/Graphics/SVG/1.1/DTD/svg11.dtd">
<svg version="1.1" id="Layer_1" xmlns="http://www.w3.org/2000/svg" xmlns:xlink="http://www.w3.org/1999/xlink" x="0px" y="0px"
	 width="16px" height="16px" viewBox="0 0 16 16" enable-background="new 0 0 16 16" xml:space="preserve">
<g id="Document_3">
	<path d="M12,4h3c0.275,0,0.342-0.158,0.146-0.354l-3.293-3.293C11.658,0.158,11.5,0.224,11.5,0.5v3C11.5,3.776,11.725,4,12,4z"/>
	<path d="M15,5h-4c-0.275,0-0.5-0.224-0.5-0.5v-4C10.5,0.224,10.275,0,10,0H2.5c-0.553,0-1,0.447-1,1v14c0,0.553,0.447,1,1,1h12
		c0.553,0,1-0.447,1-1V5.5C15.5,5.224,15.275,5,15,5z M3.5,3.5C3.5,3.224,3.724,3,4,3h4c0.276,0,0.5,0.224,0.5,0.5v1
		C8.5,4.776,8.276,5,8,5H4C3.724,5,3.5,4.776,3.5,4.5V3.5z M11.5,12.5c0,0.275-0.225,0.5-0.5,0.5H4c-0.276,0-0.5-0.225-0.5-0.5v-1
		C3.5,11.225,3.724,11,4,11h7c0.275,0,0.5,0.225,0.5,0.5V12.5z M12.5,8.5C12.5,8.775,12.275,9,12,9H4C3.724,9,3.5,8.775,3.5,8.5v-1
		C3.5,7.224,3.724,7,4,7h8c0.275,0,0.5,0.224,0.5,0.5V8.5z"/>
</g>
</svg>
