<?xml version="1.0" encoding="utf-8"?>
<!-- Generator: Adobe Illustrator 15.1.0, SVG Export Plug-In . SVG Version: 6.00 Build 0)  -->
<!DOCTYPE svg PUBLIC "-//W3C//DTD SVG 1.1//EN" "http://www.w3.org/Graphics/SVG/1.1/DTD/svg11.dtd">
<svg version="1.1" id="Layer_1" xmlns="http://www.w3.org/2000/svg" xmlns:xlink="http://www.w3.org/1999/xlink" x="0px" y="0px"
	 width="16px" height="16px" viewBox="0 0 16 16" enable-background="new 0 0 16 16" xml:space="preserve">
<path id="Email_1_x2C__At_1" d="M8,0.009c-4.418,0-8,3.582-8,8c0,4.31,3.41,7.812,7.678,7.982c-0.025,0.003,0.457-0.01,0.525-0.023
	c1.123-0.092,2.247-0.404,3.292-0.999c0.479-0.28,0.649-0.891,0.37-1.37c-0.271-0.479-0.881-0.649-1.36-0.37
	c-0.876,0.49-1.806,0.732-2.747,0.77C4.559,13.867,2,11.24,2,8.009c0-3.314,2.688-6,6-6c3.314,0,6,2.686,6,6v1c0,0.552-0.449,1-1,1
	s-1-0.448-1-1c0,0,0-0.652,0-1c0-2.209-1.791-4-4-4s-4,1.791-4,4s1.791,4,4,4c1.051,0,2-0.414,2.715-1.078
	c0.551,0.654,1.363,1.078,2.285,1.078c1.656,0,3-1.375,3-3.156V8.009C16,3.591,12.418,0.009,8,0.009z M8,10.009
	c-1.104,0-2-0.897-2-2c0-1.104,0.896-2,2-2c1.104,0,2,0.896,2,2C10,9.111,9.104,10.009,8,10.009z"/>
</svg>
