<?xml version="1.0" encoding="utf-8"?>
<!-- Generator: Adobe Illustrator 15.1.0, SVG Export Plug-In . SVG Version: 6.00 Build 0)  -->
<!DOCTYPE svg PUBLIC "-//W3C//DTD SVG 1.1//EN" "http://www.w3.org/Graphics/SVG/1.1/DTD/svg11.dtd">
<svg version="1.1" id="Layer_1" xmlns="http://www.w3.org/2000/svg" xmlns:xlink="http://www.w3.org/1999/xlink" x="0px" y="0px"
	 width="16px" height="16px" viewBox="0 0 16 16" enable-background="new 0 0 16 16" xml:space="preserve">
<path id="Mail_3_x2C__Envelope_3" d="M15,1H1C0.447,1,0,1.447,0,2v12c0,0.553,0.447,1,1,1h14c0.553,0,1-0.447,1-1V2
	C16,1.447,15.553,1,15,1z M7.5,12h-5C2.224,12,2,11.775,2,11.5v-1C2,10.225,2.224,10,2.5,10h5C7.776,10,8,10.225,8,10.5v1
	C8,11.775,7.776,12,7.5,12z M7.5,9h-5C2.224,9,2,8.775,2,8.5v-1C2,7.224,2.224,7,2.5,7h5C7.776,7,8,7.224,8,7.5v1
	C8,8.775,7.776,9,7.5,9z M13.5,6h-2C11.225,6,11,5.776,11,5.5v-2C11,3.224,11.225,3,11.5,3h2C13.775,3,14,3.224,14,3.5v2
	C14,5.776,13.775,6,13.5,6z"/>
</svg>
