<?xml version="1.0" encoding="utf-8"?>
<!-- Generator: Adobe Illustrator 15.1.0, SVG Export Plug-In . SVG Version: 6.00 Build 0)  -->
<!DOCTYPE svg PUBLIC "-//W3C//DTD SVG 1.1//EN" "http://www.w3.org/Graphics/SVG/1.1/DTD/svg11.dtd">
<svg version="1.1" id="Layer_1" xmlns="http://www.w3.org/2000/svg" xmlns:xlink="http://www.w3.org/1999/xlink" x="0px" y="0px"
	 width="16px" height="16px" viewBox="0 0 16 16" enable-background="new 0 0 16 16" xml:space="preserve">
<g id="Twitter_1">
	<path d="M15.998,2.87c-0.59,0.262-1.222,0.438-1.886,0.518c0.679-0.406,1.197-1.049,1.442-1.816
		c-0.635,0.377-1.338,0.65-2.084,0.797c-0.598-0.64-1.452-1.038-2.395-1.038c-1.814,0-3.284,1.471-3.284,3.283
		c0,0.258,0.029,0.508,0.085,0.748C5.149,5.225,2.73,3.919,1.11,1.932C0.83,2.417,0.667,2.981,0.667,3.583
		c0,1.139,0.758,2.143,1.639,2.732C1.768,6.298,0.998,6.149,0.998,5.903c0,0.016,0,0.029,0,0.043c0,1.59,0.953,2.916,2.454,3.219
		C3.175,9.239,2.797,9.28,2.498,9.28c-0.212,0-0.461-0.021-0.663-0.062c0.418,1.306,1.608,2.255,3.044,2.281
		c-1.123,0.879-2.55,1.404-4.087,1.404c-0.266,0-0.532-0.017-0.789-0.046c1.453,0.931,3.175,1.476,5.029,1.476
		c6.039,0,9.338-5.002,9.338-9.34c0-0.143-0.004-0.285-0.011-0.426C15.002,4.106,15.558,3.528,15.998,2.87z"/>
</g>
</svg>
