<?xml version="1.0" encoding="utf-8"?>
<!-- Generator: Adobe Illustrator 15.1.0, SVG Export Plug-In . SVG Version: 6.00 Build 0)  -->
<!DOCTYPE svg PUBLIC "-//W3C//DTD SVG 1.1//EN" "http://www.w3.org/Graphics/SVG/1.1/DTD/svg11.dtd">
<svg version="1.1" id="Layer_1" xmlns="http://www.w3.org/2000/svg" xmlns:xlink="http://www.w3.org/1999/xlink" x="0px" y="0px"
	 width="16px" height="16px" viewBox="0 0 16 16" enable-background="new 0 0 16 16" xml:space="preserve">
<path id="X_1" d="M11.888,10.475L9.414,8l2.475-2.475c0.196-0.195,0.196-0.513,0-0.707l-0.708-0.707
	c-0.195-0.195-0.512-0.195-0.707,0L8,6.586L5.524,4.111c-0.194-0.195-0.512-0.195-0.707,0L4.11,4.819
	c-0.195,0.194-0.195,0.512,0,0.707l2.476,2.475L4.11,10.475c-0.195,0.195-0.195,0.513,0,0.707l0.707,0.707
	c0.195,0.195,0.513,0.195,0.707,0L8,9.414l2.474,2.475c0.195,0.195,0.512,0.195,0.707,0l0.707-0.707
	C12.085,10.986,12.085,10.67,11.888,10.475z"/>
</svg>
